<?xml version="1.0" encoding="UTF-8" standalone="no"?>
<!-- Created with Inkscape (http://www.inkscape.org/) -->

<svg
   version="1.1"
   id="svg1"
   width="302"
   height="289"
   viewBox="0 0 302 289"
   xmlns="http://www.w3.org/2000/svg"
   xmlns:svg="http://www.w3.org/2000/svg">
  <defs
     id="defs1" />
  <g
     id="layer4"
     style="display:inline">
    <title
       id="title1-0">arm-flex</title>
    <path
       d="m 260.93409,27.658978 h -75.98376 c -6.02443,0 -10.85482,4.830396 -10.85482,10.854823 v 75.983749 c 0,6.02443 4.88466,10.85483 10.85482,10.85483 h 75.98376 c 6.02442,0 10.85482,-4.8304 10.85482,-10.85483 V 38.513801 c 0,-6.024427 -4.88467,-10.854823 -10.85482,-10.854823 m -15.7395,70.013612 c -5.59023,0 -10.90909,-2.170973 -14.92538,-6.187257 l -3.47354,-3.473542 7.70692,-7.65265 3.41927,3.419269 c 1.95387,1.953868 4.55903,3.03935 7.32701,3.03935 5.64451,0 10.2578,-4.6133 10.2578,-10.312081 0,-5.698782 -4.61329,-10.312081 -10.31208,-10.312081 -2.7137,0 -5.31886,1.085482 -7.27273,3.03935 L 215.6152,91.485333 c -4.01628,4.016284 -9.28087,6.187257 -14.92538,6.187257 -11.66894,0 -21.16691,-9.497977 -21.16691,-21.166911 0,-11.668934 9.49797,-21.166903 21.16691,-21.166903 5.64451,0 10.9091,2.170964 14.92538,6.187248 l 3.47355,3.473544 -7.70693,7.706923 -3.41927,-3.473543 c -1.95386,-1.953868 -4.55903,-3.03935 -7.27273,-3.03935 -5.69878,0 -10.31209,4.613299 -10.31209,10.312081 0,5.698781 4.61331,10.312081 10.31209,10.312081 2.7137,0 5.31887,-1.085482 7.27273,-3.03935 l 22.30666,-22.252386 c 4.01629,-4.016284 9.28087,-6.187248 14.92538,-6.187248 11.66893,0 21.16691,9.497969 21.16691,21.166903 0,11.668934 -9.49798,21.166911 -21.16691,21.166911 z"
       id="path1-9"
       style="stroke-width:5.42741" />
    <path
       d="m 36.894009,224.78719 c 0,0 12.426398,-139.797 49.705591,-190.620985 L 148.73161,46.592588 136.30523,84.99019 H 111.4524 v 88.97301 h 12.42642 c 24.85279,-38.14906 76.29808,-52.06661 107.36409,-38.14906 41.00712,19.01241 37.27919,76.2981 0,101.64797 -29.82338,20.3793 -119.79051,38.14902 -194.348901,-12.67492 z"
       id="path1-6"
       style="stroke-width:12.4264" />
    <path
       d="m 194.8709,176.40726 a 12.247711,12.247711 0 0 0 -12.24771,12.24771 12.247711,12.247711 0 0 0 12.24771,12.24771 12.247711,12.247711 0 0 0 12.24771,-12.24771 12.247711,12.247711 0 0 0 -12.24771,-12.24771 m 0,32.66056 a 20.412851,20.412851 0 0 1 -20.41285,-20.41285 20.412851,20.412851 0 0 1 20.41285,-20.41285 20.412851,20.412851 0 0 1 20.41285,20.41285 20.412851,20.412851 0 0 1 -20.41285,20.41285 m 0,-51.03213 c -20.41285,0 -37.84542,12.69679 -44.90827,30.61928 7.06285,17.92248 24.49542,30.61927 44.90827,30.61927 20.41285,0 37.84543,-12.69679 44.90828,-30.61927 -7.06285,-17.92249 -24.49543,-30.61928 -44.90828,-30.61928 z"
       id="path1"
       style="fill:#ffffff;stroke-width:4.08257" />
  </g>
  <g
     id="layer7"
     style="fill:#000000">
    <rect
       style="fill:none;stroke:#000000;stroke-width:19.3453;stroke-dasharray:none;stroke-opacity:1;paint-order:markers fill stroke"
       id="rect2"
       width="282.65469"
       height="269.65469"
       x="9.6726503"
       y="9.6726503" />
  </g>
</svg>
